<svg data-v-423bf9ae="" xmlns="http://www.w3.org/2000/svg" viewBox="0 0 183.58127582539686 60" class="font"><!----><!----><!----><g data-v-423bf9ae="" id="eea94f07-856c-411d-898c-1f6281acc022" fill="#1e78f3" transform="matrix(5.509642182077017,0,0,5.509642182077017,-1.928373288094022,1.5427005030029868)"><path d="M3.51 10.61C5.12 10.61 6.78 9.44 7 6.55C7.20 6.57 7.32 6.64 7.41 6.72C7.83 6.13 7.36 5.38 6.40 5.38C5.33 5.38 4.49 5.84 3.65 5.38C3.19 5.98 3.72 6.96 4.70 6.96C5.21 6.96 5.67 6.78 6.15 6.66C6.02 8.41 5.10 9.31 4.30 9.31C2.88 9.31 2.32 7.94 2.32 6.29C2.32 3.43 3.60 0.81 4.82 0.81C5.74 0.81 5.67 2.10 4.96 2.52C5.11 2.91 5.54 3.08 5.77 3.08C7.25 3.08 7.69-0.28 5.01-0.28C2.45-0.28 0.35 2.95 0.35 6.52C0.35 8.68 1.32 10.61 3.51 10.61ZM7.97 7.92C7.73 8.97 7.73 10.61 9.28 10.61C10.08 10.61 10.77 9.94 11.33 9.03C11.26 10.26 11.94 10.61 12.63 10.61C13.38 10.61 14.39 9.97 15.05 9.23C15.13 9.13 15.18 9.02 15.18 8.92C15.18 8.78 15.09 8.65 14.94 8.58C14.59 8.93 13.99 9.28 13.47 9.28C13.10 9.28 12.88 9.03 13.05 8.25L14.03 3.61C13.86 3.50 13.62 3.43 13.37 3.43C12.87 3.43 12.33 3.67 12.19 4.31L11.35 8.27C10.98 8.72 10.56 9.00 10.07 9.00C9.65 9.00 9.46 8.75 9.59 8.18L10.44 4.20C10.57 3.67 10.28 3.43 9.77 3.43C9.18 3.43 8.68 3.72 8.20 4.10C7.92 4.33 8.02 4.76 8.20 4.87C8.33 4.76 8.41 4.70 8.48 4.70C8.61 4.70 8.68 4.83 8.62 5.05ZM18.35 3.37C16.24 3.37 14.77 6.02 14.77 8.13C14.77 9.45 15.39 10.61 16.83 10.61C19.03 10.61 20.52 7.97 20.52 5.88C20.52 4.51 19.88 3.37 18.35 3.37ZM18.66 4.44C19.24 4.44 19.47 5.01 19.47 5.77C19.47 7.24 18.58 9.39 17.47 9.39C16.98 9.39 16.56 8.92 16.56 7.69C16.56 6.31 17.39 4.44 18.66 4.44ZM23.72 4.20C23.83 3.67 23.55 3.43 23.04 3.43C22.46 3.43 21.95 3.72 21.48 4.10C21.20 4.33 21.29 4.76 21.48 4.87C21.60 4.76 21.69 4.70 21.76 4.70C21.88 4.70 21.94 4.83 21.90 5.05L20.75 10.43C20.92 10.54 21.15 10.61 21.41 10.61C21.91 10.61 22.44 10.37 22.58 9.73L22.75 8.88C23.46 5.64 24.12 5.01 24.58 5.01C24.88 5.01 25.02 5.17 25.02 5.36C25.02 5.53 24.96 5.71 24.86 5.80C24.99 5.84 25.14 5.85 25.27 5.85C26.00 5.85 26.39 5.17 26.39 4.54C26.39 3.96 26.04 3.43 25.37 3.43C24.72 3.43 24.12 3.82 23.56 4.96ZM29.47 3.37C27.52 3.37 25.94 5.81 25.94 8.26C25.94 9.16 26.24 10.61 27.69 10.61C28.49 10.61 29.23 10.02 29.82 9.20C29.81 10.30 30.46 10.61 31.12 10.61C31.88 10.61 32.89 9.97 33.54 9.23C33.63 9.13 33.67 9.02 33.67 8.92C33.67 8.78 33.59 8.65 33.43 8.58C33.08 8.93 32.48 9.28 31.96 9.28C31.60 9.28 31.37 9.03 31.54 8.25L32.52 3.61C32.35 3.50 32.12 3.43 31.86 3.43C31.51 3.43 31.15 3.56 30.91 3.84C30.56 3.53 30.10 3.37 29.47 3.37ZM29.85 8.29C29.47 8.81 28.88 9.17 28.43 9.17C28 9.17 27.68 8.86 27.68 8.16C27.68 6.64 28.28 4.42 29.97 4.42C30.18 4.42 30.39 4.45 30.63 4.54Z"></path></g><!----><!----></svg>